<?xml version="1.0" encoding="utf-8"?>
<!-- Generator: Adobe Illustrator 27.2.0, SVG Export Plug-In . SVG Version: 6.00 Build 0)  -->
<svg version="1.1" id="레이어_1" xmlns="http://www.w3.org/2000/svg" xmlns:xlink="http://www.w3.org/1999/xlink" x="0px"
	 y="0px" viewBox="0 0 199.11 114.08" style="enable-background:new 0 0 199.11 114.08;" xml:space="preserve">
<style type="text/css">
	.st0{fill:#FFFFFF;}
	.st1{fill:#1D3F7A;}
</style>
<g>
	<path d="M112.79,6.92h17.04v8.1h-17.04V6.92z M112.79,17.36h17.04v33.9h-17.04V17.36z"/>
	<rect x="133.22" y="17.29" width="17.1" height="44.88"/>
	<path d="M150.54,107.22H114.7c-2.84,0-5.15-2.3-5.15-5.15V82.77c0-2.84,2.3-5.15,5.15-5.15h35.85c2.84,0,5.15,2.3,5.15,5.15v19.31
		C155.69,104.92,153.38,107.22,150.54,107.22z"/>
	<path d="M25.28,9.19h24.66c15.66,0,26.1,7.56,26.1,21s-10.56,21-26.16,21h-24.6V9.19z M42.92,20.41v19.74h5.7
		c5.82,0,9.3-2.88,9.3-9.84c0-7.02-3.48-9.9-9.3-9.9H42.92z"/>
	<path d="M79.04,17.29h17.1v4.18c2.76-4.56,7.08-4.78,13.44-4.78H110v12.36c-1.44-0.42-3-0.6-4.62-0.6c-3.72,0-7.38,1.08-9.24,3.18
		v19.56h-17.1V17.29z"/>
	<path d="M112.7,17.29h17.04v33.9H112.7V17.29z"/>
	<path d="M10.24,92.2H27.4c0.9,3.66,3.72,5.4,8.64,5.4c4.74,0,7.02-1.44,7.02-3.18c0-2.7-5.22-3.42-11.46-4.32
		c-9.48-1.44-21.3-3.3-21.3-13.26c0-8.22,8.22-14.1,23.94-14.1c14.82,0,23.82,5.4,25.92,14.64H43.29c-0.9-3.48-3.84-5.28-8.52-5.28
		c-4.56,0-6.42,1.32-6.42,2.94c0,2.76,5.7,3.42,12.3,4.5c9.3,1.44,20.4,3.6,20.4,13.02c0,8.4-9.18,14.22-24.66,14.22
		C21.34,106.78,12.22,101.62,10.24,92.2z"/>
	<path d="M63.81,63.76h17.1V76.6c2.88-3.6,7.02-5.52,12.18-5.52c8.16,0,13.68,4.8,13.68,12.72v21.96h-17.1v-20.1
		c0-2.82-1.8-4.26-4.32-4.26c-1.86,0-3.42,0.78-4.44,1.98v22.38h-17.1V63.76z"/>
	<path class="st0" d="M122.14,92.94c0-5.86,4.08-9.4,10.17-9.4c6.04,0,10.14,3.54,10.14,9.4c0,5.83-4.08,9.4-10.14,9.4
		C126.22,102.34,122.14,98.77,122.14,92.94z M135.21,92.97c0-2.82-1.18-4.14-2.9-4.14c-1.74,0-2.92,1.32-2.92,4.11
		c0,2.82,1.18,4.14,2.92,4.14C134.03,97.08,135.21,95.76,135.21,92.97z"/>
	<path d="M160.55,95.98V80.74h-9.66v-8.88h9.66v-6.9h16.8v6.9h11.52v8.88h-11.52v12.72c0,2.16,1.26,3,4.32,3h7.2v9.3h-16.62
		C164.21,105.76,160.55,102.52,160.55,95.98z"/>
	<ellipse cx="121.22" cy="10.9" rx="8.52" ry="4.05"/>
	<path d="M174.22,21.22l-1.98,3.39l-10.44-6.09l1.94-3.33c1.69-2.9,5.41-3.88,8.31-2.19l0,0C174.92,14.67,175.89,18.35,174.22,21.22
		z"/>
	<path class="st0" d="M170.12,19.79l-0.77,1.32l-3.07-1.79l0.73-1.25c0.51-0.87,1.62-1.16,2.48-0.65l0,0
		C170.32,17.89,170.6,18.96,170.12,19.79z"/>
	<path d="M171.48,39.73L171.48,39.73c-4.48,7.69-14.34,10.29-22.03,5.81l-4.51-2.63c-2.38-1.38-3.18-4.43-1.79-6.81l11.26-19.32
		c1.41-2.42,4.52-3.24,6.94-1.83l4.26,2.49C173.38,21.96,176.01,31.95,171.48,39.73z"/>
	<path class="st0" d="M160.86,20.77l-9.6,16.46c-0.61,1.04-1.95,1.4-2.99,0.79l-0.54-0.32c-1.04-0.61-1.4-1.95-0.79-2.99l9.6-16.46
		c0.61-1.04,1.95-1.4,2.99-0.79l0.54,0.32C161.12,18.38,161.47,19.72,160.86,20.77z"/>
	<g>
		<g>
			<path class="st0" d="M155.65,32.92c-5.83-1.48-11.05,1.64-14.33,6.29c-1.55,2.2-2.86,4.69-3.58,7.3
				c-0.83,3.01-0.8,6.13-0.39,9.19c0.4,3,1.16,5.91,1.79,8.86c0.46,2.15,0.8,4.17,0.52,6.44c-0.06,0.45-0.44,1.95-0.77,2.73
				c-0.38,0.9-1.07,2-1.7,2.89c-1.46,2.04-3.35,3.92-4.07,6.45c-0.61,2.16-0.8,4.65-0.72,6.89c0.02,0.68,0.1,1.36,0.21,2.02
				c0.03,0.17,0.05,0.34,0.1,0.51c0.1,0.37,0,0.46,0.15,0.22c0.5-0.78-0.03-0.24-0.26-0.06c-0.36,0.28-1.04,0.61-1.56,0.84
				c-1.54,0.69-1.91,2.93-1.12,4.28c0.93,1.58,2.73,1.82,4.28,1.12c2.34-1.05,4.81-3.1,4.9-5.88c0.02-0.59-0.09-1.17-0.22-1.75
				c-0.03-0.13-0.08-0.31-0.13-0.44c-0.27-0.71,0.01,0.39-0.04-0.11c-0.1-0.99-0.07-1.99,0-2.97c0.08-1.18,0.09-1.27,0.25-2.16
				c0.18-0.97,0.36-1.42,0.96-2.31c1.37-2.07,3.11-3.83,4.21-6.08c2.29-4.69,2.08-9.55,0.99-14.54c-1.13-5.13-2.88-10.57-0.96-15.73
				c1.49-4.02,5.13-9.18,9.83-7.99C157.89,39.93,159.56,33.91,155.65,32.92L155.65,32.92z"/>
		</g>
	</g>
	<g>
		<g>
			<path class="st1" d="M155.49,33.52c-5.54-1.4-10.51,1.58-13.62,6c-1.52,2.16-2.81,4.59-3.52,7.15c-0.81,2.92-0.78,5.96-0.38,8.94
				c0.4,2.97,1.15,5.86,1.78,8.78c0.46,2.16,0.82,4.4,0.54,6.61c-0.28,2.18-1.29,4.16-2.55,5.93c-1.45,2.04-3.3,3.83-4.01,6.3
				c-0.6,2.11-0.78,4.54-0.7,6.72c0.02,0.62,0.09,1.24,0.19,1.86c0.03,0.19,0.27,0.91,0.27,0.9c0.01-0.31-0.39,0.33-0.51,0.43
				c-0.48,0.37-1.07,0.64-1.62,0.89c-1.23,0.55-1.53,2.34-0.9,3.42c0.74,1.27,2.18,1.45,3.42,0.9c2.14-0.96,4.48-2.78,4.59-5.34
				c0.02-0.54-0.08-1.06-0.2-1.58c-0.03-0.14-0.09-0.29-0.13-0.44c-0.2-0.74,0,0.22-0.06-0.27c-0.12-0.98-0.06-1.99,0-2.97
				c0.12-1.71,0.29-3.27,1.3-4.78c1.37-2.07,3.11-3.82,4.21-6.08c2.22-4.53,1.98-9.25,0.92-14.06c-1.15-5.25-2.9-10.78-0.96-16.06
				c1.54-4.2,5.4-9.74,10.6-8.43C157.28,39.13,158.61,34.31,155.49,33.52L155.49,33.52z"/>
		</g>
	</g>
	<circle class="st1" cx="132.29" cy="92.94" r="6.46"/>
	<path d="M120.89,80.33h-6.72c-0.95,0-1.65-0.57-1.43-1.17l1.26-3.51c0.16-0.43,0.75-0.74,1.43-0.74h3.96c0.66,0,1.24,0.29,1.42,0.7
		l1.5,3.51C122.57,79.73,121.87,80.33,120.89,80.33z"/>
	<path class="st0" d="M117.3,86.8L117.3,86.8c-1.01,0-1.84-0.82-1.84-1.84v-2.85c0-1.01,0.82-1.84,1.84-1.84l0,0
		c1.01,0,1.84,0.82,1.84,1.84v2.85C119.14,85.97,118.32,86.8,117.3,86.8z"/>
	<path d="M166.6,27.07L157,43.53c-0.61,1.04-1.95,1.4-2.99,0.79l-3.17-1.85c-1.04-0.61-1.4-1.95-0.79-2.99l9.6-16.46
		c0.61-1.04,1.95-1.4,2.99-0.79l3.17,1.85C166.85,24.69,167.2,26.03,166.6,27.07z"/>
</g>
</svg>
