<?xml version="1.0" encoding="utf-8"?>
<!-- Generator: Adobe Illustrator 27.2.0, SVG Export Plug-In . SVG Version: 6.00 Build 0)  -->
<svg version="1.1" id="레이어_1" xmlns="http://www.w3.org/2000/svg" xmlns:xlink="http://www.w3.org/1999/xlink" x="0px"
	 y="0px" viewBox="0 0 375.14 67.78" style="enable-background:new 0 0 375.14 67.78;" xml:space="preserve">
<style type="text/css">
	.st0{fill:#FFFFFF;}
	.st1{stroke:#FFFFFF;stroke-miterlimit:10;}
	.st2{fill:#1D3F7A;}
	.st3{fill:#1D3F7A;stroke:#FFFFFF;stroke-width:0.25;stroke-miterlimit:10;}
</style>
<path d="M112.79,6.92h17.04v8.1h-17.04V6.92z M112.79,17.36h17.04v33.9h-17.04V17.36z"/>
<rect x="133.22" y="18.39" width="17.1" height="44.88"/>
<path d="M25.28,9.19h24.66c15.66,0,26.1,7.56,26.1,21s-10.56,21-26.16,21h-24.6V9.19z M42.92,20.41v19.74h5.7
	c5.82,0,9.3-2.88,9.3-9.84c0-7.02-3.48-9.9-9.3-9.9C48.62,20.41,42.92,20.41,42.92,20.41z"/>
<path d="M79.04,17.29h17.1v4.18c2.76-4.56,7.08-4.78,13.44-4.78H110v12.36c-1.44-0.42-3-0.6-4.62-0.6c-3.72,0-7.38,1.08-9.24,3.18
	v19.56h-17.1V17.29z"/>
<path d="M112.7,17.29h17.04v33.9H112.7V17.29z"/>
<ellipse cx="121.22" cy="10.9" rx="8.52" ry="4.05"/>
<path d="M174.22,21.22l-1.98,3.39l-10.44-6.09l1.94-3.33c1.69-2.9,5.41-3.88,8.31-2.19l0,0C174.92,14.67,175.89,18.35,174.22,21.22z
	"/>
<path class="st0" d="M170.12,19.79l-0.77,1.32l-3.07-1.79l0.73-1.25c0.51-0.87,1.62-1.16,2.48-0.65l0,0
	C170.32,17.89,170.6,18.96,170.12,19.79z"/>
<path d="M171.48,39.73L171.48,39.73c-4.48,7.69-14.34,10.29-22.03,5.81l-4.51-2.63c-2.38-1.38-3.18-4.43-1.79-6.81l11.26-19.32
	c1.41-2.42,4.52-3.24,6.94-1.83l4.26,2.49C173.38,21.96,176.01,31.95,171.48,39.73z"/>
<path class="st0" d="M160.88,20.72l-8.94,15.32c-0.57,0.97-1.82,1.3-2.78,0.74l-0.5-0.3c-0.97-0.57-1.3-1.82-0.74-2.78l8.94-15.32
	c0.57-0.97,1.82-1.3,2.78-0.74l0.5,0.3C161.12,18.49,161.45,19.74,160.88,20.72z"/>
<g>
	<path d="M333.11,43.55V28.31h-9.66v-8.88h9.66v-6.9h16.8v6.9h11.52v8.88h-11.52v12.72c0,2.16,1.26,3,4.32,3h7.2v9.3h-16.62
		C336.77,53.33,333.11,50.09,333.11,43.55z"/>
	<path class="st1" d="M323.1,54.79h-35.84c-2.84,0-5.15-2.3-5.15-5.15v-19.3c0-2.84,2.3-5.15,5.15-5.15h35.85
		c2.84,0,5.15,2.3,5.15,5.15v19.31C328.25,52.49,325.94,54.79,323.1,54.79z"/>
	<path d="M182.8,39.77h17.16c0.9,3.66,3.72,5.4,8.64,5.4c4.74,0,7.02-1.44,7.02-3.18c0-2.7-5.22-3.42-11.46-4.32
		c-9.48-1.44-21.3-3.3-21.3-13.26c0-8.22,8.22-14.1,23.94-14.1c14.82,0,23.82,5.4,25.92,14.64h-16.87c-0.9-3.48-3.84-5.28-8.52-5.28
		c-4.56,0-6.42,1.32-6.42,2.94c0,2.76,5.7,3.42,12.3,4.5c9.3,1.44,20.4,3.6,20.4,13.02c0,8.4-9.18,14.22-24.66,14.22
		C193.9,54.35,184.78,49.19,182.8,39.77z"/>
	<path d="M236.37,11.33h17.1v12.84c2.88-3.6,7.02-5.52,12.18-5.52c8.16,0,13.68,4.8,13.68,12.72v21.96h-17.1v-20.1
		c0-2.82-1.8-4.26-4.32-4.26c-1.86,0-3.42,0.78-4.44,1.98v22.38h-17.1C236.37,53.33,236.37,11.33,236.37,11.33z"/>
	<path class="st0" d="M294.7,40.51c0-5.86,4.08-9.4,10.17-9.4c6.04,0,10.14,3.54,10.14,9.4c0,5.83-4.08,9.4-10.14,9.4
		C298.78,49.91,294.7,46.34,294.7,40.51z M307.77,40.54c0-2.82-1.18-4.14-2.9-4.14c-1.74,0-2.92,1.32-2.92,4.11
		c0,2.82,1.18,4.14,2.92,4.14C306.59,44.65,307.77,43.33,307.77,40.54z"/>
	<circle class="st2" cx="304.85" cy="40.51" r="6.46"/>
	<path d="M293.45,27.9h-6.72c-0.95,0-1.65-0.57-1.43-1.17l1.26-3.51c0.16-0.43,0.75-0.74,1.43-0.74h3.96c0.66,0,1.24,0.29,1.42,0.7
		l1.5,3.51C295.13,27.3,294.43,27.9,293.45,27.9z"/>
	<path class="st0" d="M289.86,34.37L289.86,34.37c-1.01,0-1.84-0.82-1.84-1.84v-2.85c0-1.01,0.82-1.84,1.84-1.84l0,0
		c1.01,0,1.84,0.82,1.84,1.84v2.85C291.7,33.54,290.88,34.37,289.86,34.37z"/>
</g>
<path class="st3" d="M138.82,46.88c1.18-3.96,6.65-11.75,13.05-12.05c6.4-0.3,9.93,2.39,9.93,2.39l-5.19,4.17
	c0,0-1.74-3.85-6.24-1.72c-4.5,2.13-6.31,6.82-7.34,10.56c-1.03,3.74,0.06,7.03,1.05,9.53c0.99,2.5,2.7,3.77,2.56,5.58
	s-7.73,1.11-10.02,0.79c-2.29-0.32-0.16-2.53,1.03-4.82c1.19-2.29,0.52-4.08,0.05-7.35C137.24,50.71,138.82,46.88,138.82,46.88z"/>
<path d="M169.15,26.5l-11.43,19.6c-0.73,1.24-2.32,1.67-3.56,0.94l-3.78-2.2c-1.24-0.73-1.67-2.32-0.94-3.56l11.43-19.6
	c0.73-1.24,2.32-1.67,3.56-0.94l3.78,2.2C169.45,23.67,169.86,25.26,169.15,26.5z"/>
</svg>
