<?xml version="1.0" encoding="utf-8"?>
<!-- Generator: Adobe Illustrator 27.2.0, SVG Export Plug-In . SVG Version: 6.00 Build 0)  -->
<svg version="1.1" id="레이어_1" xmlns="http://www.w3.org/2000/svg" xmlns:xlink="http://www.w3.org/1999/xlink" x="0px"
	 y="0px" viewBox="0 0 154.8 107.61" style="enable-background:new 0 0 154.8 107.61;" xml:space="preserve">
<style type="text/css">
	.st0{fill:#FFFFFF;}
	.st1{fill:#1D3F7A;}
</style>
<g>
	<path d="M93.07,18.15c-4.44,0-6.96-2.58-6.96-7.02c0-4.38,2.52-6.84,6.96-6.84c4.5,0,7.08,2.46,7.08,6.84
		C100.15,15.57,97.57,18.15,93.07,18.15z M99.43,52.11H86.77V20.43h12.66V52.11z"/>
	<path d="M18.92,52.11V8.67h17.16c15.06,0,21.54,8.1,21.54,21.06c0,13.32-7.02,22.38-22.56,22.38H18.92z M34.15,42.15
		c8.7,0,10.26-4.68,10.26-12.18c0-8.64-2.4-11.46-9.36-11.46h-3.12v23.64H34.15z"/>
	<path d="M84.25,31.53c-4.2-0.18-7.74,0.6-10.44,2.46v18.12H61.16V20.43h10.86l0.9,5.4c1.44-2.58,4.14-6.06,9.42-6.06
		c0.6,0,1.26,0.06,1.92,0.12V31.53z"/>
	<path d="M21.13,69.76c0,2.7,3.36,3.66,7.5,4.74c6.3,1.62,14.34,3.78,14.34,13.44c0,10.5-8.7,14.7-17.94,14.7
		c-6.48,0-17.4-1.02-17.82-14.46l11.52-1.56c0.48,3.78,1.38,6.78,6.66,6.78c3.06,0,5.1-1.02,5.1-3.66c0-2.76-3.36-3.6-7.44-4.56
		c-6.36-1.5-14.4-3.42-14.4-13.44c0-9.3,7.8-14.04,17.04-14.04c7.86,0,16.2,1.74,16.56,12.9l-11.76,1.32c0-4.02-1.68-5.1-5.22-5.1
		C22.81,66.82,21.13,67.66,21.13,69.76z"/>
	<path d="M76.87,101.92H64.21v-19.5c0-2.52-1.14-3.18-2.58-3.18c-1.32,0-2.52,0.54-3.18,1.26v21.42H45.79v-45.3h12.48v16.5
		c1.5-1.68,4.02-3.54,8.58-3.54c6.78,0,10.02,3.3,10.02,10.56V101.92z"/>
	<path d="M147.59,100.68c-1.62,1.02-5.76,2.64-10.74,2.64c-7.32,0-11.34-3.3-11.34-11.34V79.5h-4.56v-8.58h4.56v-9.48l12.66-1.56
		v11.04h8.1v8.58h-8.1v11.1c0,2.34,0.84,3.36,2.94,3.36c1.8,0,3.78-0.72,4.98-1.32L147.59,100.68z"/>
	<rect x="101.76" y="20.42" width="13.07" height="44.88"/>
	<path d="M114.44,102.35H84.47c-2.84,0-5.15-2.3-5.15-5.15V77.9c0-2.84,2.3-5.15,5.15-5.15h29.97c2.84,0,5.15,2.3,5.15,5.15V97.2
		C119.58,100.05,117.28,102.35,114.44,102.35z"/>
	<path class="st0" d="M88.97,88.06c0-5.86,4.08-9.4,10.17-9.4c6.04,0,10.14,3.54,10.14,9.4c0,5.83-4.08,9.4-10.14,9.4
		C93.05,97.47,88.97,93.89,88.97,88.06z M102.04,88.09c0-2.82-1.18-4.14-2.9-4.14c-1.74,0-2.92,1.32-2.92,4.11
		c0,2.82,1.18,4.14,2.92,4.14C100.86,92.2,102.04,90.88,102.04,88.09z"/>
	<path d="M141.03,24.34l-1.98,3.39l-10.44-6.09l1.94-3.33c1.69-2.9,5.41-3.88,8.31-2.19l0,0C141.74,17.8,142.7,21.48,141.03,24.34z"
		/>
	<path class="st0" d="M136.93,22.91l-0.77,1.32l-3.07-1.79l0.73-1.25c0.51-0.87,1.62-1.16,2.48-0.65v0
		C137.13,21.02,137.42,22.08,136.93,22.91z"/>
	<path d="M138.29,42.85L138.29,42.85c-4.48,7.69-14.34,10.29-22.03,5.81l-4.51-2.63c-2.38-1.38-3.18-4.43-1.79-6.81l11.26-19.32
		c1.41-2.42,4.52-3.24,6.94-1.83l4.26,2.49C140.2,25.09,142.83,35.07,138.29,42.85z"/>
	<path class="st0" d="M127.67,23.89l-9.6,16.46c-0.61,1.04-1.95,1.4-2.99,0.79l-0.54-0.32c-1.04-0.61-1.4-1.95-0.79-2.99l9.6-16.46
		c0.61-1.04,1.95-1.4,2.99-0.79l0.54,0.32C127.93,21.51,128.28,22.85,127.67,23.89z"/>
	<g>
		<g>
			<path class="st0" d="M124.65,36.01c-5.26-1.05-10.68,0.61-14.42,4.47c-1.91,1.97-3.55,4.26-4.58,6.81
				c-1.09,2.67-1.2,5.52-0.8,8.35c0.39,2.82,1.29,5.51,2.05,8.24c0.26,0.95,0.53,1.9,0.74,2.86c0.05,0.22,0.09,0.44,0.14,0.66
				c0.23,1.01-0.01-0.29,0.06,0.3c0.05,0.47,0.08,0.94,0.06,1.4c0-0.05-0.1,0.93-0.03,0.5c0.06-0.36-0.07,0.27-0.09,0.35
				c-0.06,0.21-0.11,0.41-0.18,0.61c-0.19,0.55,0.34-0.62-0.15,0.34c-0.47,0.93-1.09,1.68-1.79,2.44c-1.45,1.56-3.11,3.13-4.11,5.03
				c-0.94,1.79-1.69,4.07-2.11,6.05c-0.25,1.22-0.43,2.55-0.06,3.77c0.16,0.54,0.31,0.52,0.26-0.09c-0.02-0.29,0.49-0.27-0.11,0
				c0.25-0.11-0.39,0.14-0.28,0.1c-1.58,0.59-2.66,2.11-2.18,3.84c0.42,1.52,2.25,2.78,3.84,2.18c2.53-0.95,4.92-2.81,4.91-5.77
				c0-0.65-0.14-1.24-0.37-1.83c-0.05-0.12-0.11-0.55-0.06-0.13c0.05,0.47,0.02-0.11,0.04-0.22c0.09-0.48-0.11,0.48,0.01-0.04
				c0.05-0.21,0.09-0.41,0.14-0.62c0.13-0.53,0.3-1.05,0.48-1.57c0.25-0.72,0.57-1.44,0.77-2.18c0.04-0.13,0.21-0.61-0.01-0.08
				c0.08-0.18,0.19-0.37,0.29-0.54c0.22-0.37,0.51-0.76,0.64-0.92c1.48-1.82,3.26-3.36,4.55-5.33c2.56-3.9,1.92-8.17,0.74-12.41
				c-1.22-4.42-3.54-9.61-1.11-14.02c2.24-4.07,6.24-7.5,11.07-6.53c1.65,0.33,3.37-0.47,3.84-2.18
				C127.26,38.31,126.32,36.34,124.65,36.01L124.65,36.01z"/>
		</g>
	</g>
	<g>
		<g>
			<path class="st1" d="M124.52,36.49c-5.08-1.02-10.32,0.62-13.93,4.34c-1.84,1.9-3.45,4.13-4.45,6.59
				c-1.06,2.58-1.18,5.34-0.8,8.08c0.39,2.82,1.29,5.51,2.05,8.24c0.51,1.83,1.07,3.54,1.02,5.35c-0.05,1.64-1.13,3.24-2.39,4.6
				c-1.42,1.53-3.05,3.07-4.03,4.93c-0.93,1.76-1.65,3.99-2.06,5.93c-0.24,1.13-0.4,2.37-0.06,3.5c0.12,0.39,0.05,0.57,0.23,0.24
				c0,0-0.52,0.31-0.72,0.39c-1.33,0.5-2.23,1.77-1.83,3.22c0.35,1.27,1.89,2.33,3.22,1.83c2.32-0.87,4.55-2.56,4.54-5.29
				c0-0.6-0.14-1.15-0.36-1.7c-0.03-0.08-0.11-0.51-0.07-0.2c0.04,0.34,0.02-0.21,0.03-0.29c0.07-0.46-0.06,0.32,0.03-0.17
				c0.04-0.21,0.09-0.41,0.14-0.62c0.13-0.53,0.3-1.05,0.48-1.57c0.56-1.65,0.78-2.66,1.82-3.94c1.45-1.79,3.2-3.29,4.48-5.22
				c2.49-3.79,1.83-7.91,0.69-12.02c-1.27-4.58-3.57-9.85-1.06-14.41c2.3-4.19,6.56-7.78,11.64-6.77c1.39,0.28,2.83-0.4,3.22-1.83
				C126.7,38.43,125.91,36.77,124.52,36.49L124.52,36.49z"/>
		</g>
	</g>
	<circle class="st1" cx="99.13" cy="88.06" r="6.46"/>
	<path d="M133.07,30l-9.6,16.46c-0.61,1.04-1.95,1.4-2.99,0.79l-2.83-1.65c-1.04-0.61-1.4-1.95-0.79-2.99l9.6-16.46
		c0.61-1.04,1.95-1.4,2.99-0.79l2.83,1.65C133.33,27.61,133.68,28.95,133.07,30z"/>
	<path d="M90.13,75.14h-6.72c-0.95,0-1.65-0.57-1.43-1.17l1.26-3.51c0.16-0.43,0.75-0.74,1.43-0.74h3.96c0.66,0,1.24,0.29,1.42,0.7
		l1.5,3.51C91.81,74.54,91.11,75.14,90.13,75.14z"/>
	<path class="st0" d="M86.54,81.6L86.54,81.6c-1.01,0-1.84-0.82-1.84-1.84v-2.85c0-1.01,0.82-1.84,1.84-1.84h0
		c1.01,0,1.84,0.82,1.84,1.84v2.85C88.38,80.78,87.56,81.6,86.54,81.6z"/>
</g>
</svg>
